<?xml version="1.0"?>
<svg width="103.17322" height="104.31332" xmlns="http://www.w3.org/2000/svg">
 <metadata id="metadata45">image/svg+xml</metadata>

 <g>
  <title>background</title>
  <rect fill="none" id="canvas_background" height="402" width="582" y="-1" x="-1"/>
 </g>
 <g>
  <title>Layer 1</title>
  <path fill="#a8a8a8" id="path3" d="m64.566513,22.116381l0,20.40428l7.130516,4.48988c0.188065,0.054852 0.59552,0.058769 0.783585,0l30.688675,-20.690281c0,-2.448669 -2.284119,-4.203878 -3.573097,-4.203878l-35.029678,0z"/>
  <path d="m64.566498,50.133099l6.507599,4.470303c0.916801,0.673798 2.021606,0 2.021606,0c-1.100906,0.673798 30.077293,-20.035999 30.077293,-20.035999l0,37.501797c0,4.082504 -2.612999,5.794601 -5.551399,5.794601l-33.058998,0l0,-27.730701l0.003899,0z" fill="#a8a8a8" id="path5"/>
  <g transform="matrix(3.9178712,0,0,3.9178712,-13.481403,-41.384473) " id="g23">
   <path fill="#a8a8a8" id="path25" d="m11.321,20.958c-0.566,0 -1.017,0.266001 -1.35,0.796999c-0.332999,0.531 -0.5,1.234001 -0.5,2.109001c0,0.888 0.167001,1.59 0.5,2.105999c0.333,0.517 0.77,0.774 1.31,0.774c0.557,0 0.999,-0.250999 1.325,-0.753c0.326,-0.501999 0.49,-1.198999 0.49,-2.089998c0,-0.929001 -0.158,-1.652 -0.474999,-2.169001c-0.317,-0.516001 -0.75,-0.774 -1.3,-0.774z"/>
   <path fill="#a8a8a8" id="path27" d="m3.441,13.563l0,20.375l15.5,3.25l0,-26.625l-15.5,3zm10.372,13.632c-0.655,0.862 -1.509,1.294001 -2.563,1.294001c-1.027,0 -1.863,-0.418001 -2.51,-1.253c-0.646,-0.836 -0.97,-1.924 -0.97,-3.266001c0,-1.417 0.328,-2.563 0.985,-3.438c0.657,-0.875 1.526999,-1.313 2.61,-1.313c1.023001,0 1.851,0.417999 2.482,1.256001c0.632,0.837999 0.948,1.941999 0.948,3.313c0.000999,1.409 -0.327,2.545 -0.982,3.407z"/>
  </g>
 </g>
</svg>